# Blender 4.0.2
# www.blender.org
mtllib stairs_down_copy.mtl
o StairsUp
v 1.000000 -1.099999 1.000000
v -1.000000 -1.099999 1.000000
v 1.000000 -0.899999 0.600001
v 0.999999 -0.899999 1.000001
v -1.000000 -0.899999 1.000000
v -1.000000 -0.899999 0.600000
v 1.000000 -0.699999 0.600001
v -1.000000 -0.699999 0.600000
v -1.000000 -0.699999 0.200000
v 1.000000 -0.699999 0.200001
v 1.000000 -0.499999 0.200001
v -1.000000 -0.499999 0.200000
v 1.000000 -0.499999 -0.199999
v -1.000000 -0.499999 -0.200000
v -1.000000 -0.299999 -0.200000
v 1.000000 -0.299999 -0.199999
v 1.000000 -0.299999 -0.599999
v -1.000000 -0.299999 -0.600000
v -1.000000 -0.099999 -0.600000
v 1.000000 -0.099999 -0.599999
v 1.000000 -0.099999 -0.999999
v -1.000000 -0.099999 -1.000000
v -1.000000 -0.099999 -1.000000
v -1.000000 -1.099999 1.000000
v -1.000000 0.000001 -0.999999
v -1.000001 0.000001 1.000001
v 1.000000 0.000001 -0.999999
v 1.000000 -0.099999 -1.000000
v 1.000000 -1.099999 1.000000
v 0.999886 -0.000009 1.000102
v 1.600000 0.200000 -1.600000
v 1.600000 0.000001 -1.600000
v -1.600000 0.000001 -1.600000
v -1.600000 0.200001 -1.600000
v 1.000000 0.200000 -1.000000
v 0.999999 0.000000 -1.000000
v -1.000000 0.000001 -1.000000
v -1.000000 0.200001 -1.000000
v -1.600000 0.200001 1.600000
v -1.000000 0.200001 1.000000
v -1.600000 0.000001 1.600000
v -1.000000 0.000001 1.000000
v 1.600000 0.200000 1.600000
v 1.000000 0.200000 1.000000
v 1.600000 0.000001 1.600000
v 0.999999 0.000000 1.000000
v 1.000000 -0.899999 0.600001
v 0.999999 -0.899999 1.000001
v -1.000000 -0.899999 1.000000
v -1.000000 -0.899999 0.600000
v -1.000000 -0.699999 0.600000
v 1.000000 -0.699999 0.600001
v -1.000000 -0.699999 0.200000
v 1.000000 -0.699999 0.200001
v -1.000000 -0.499999 0.200000
v 1.000000 -0.499999 0.200001
v -1.000000 -0.499999 -0.200000
v 1.000000 -0.499999 -0.199999
v -1.000000 -0.299999 -0.200000
v 1.000000 -0.299999 -0.199999
v -1.000000 -0.299999 -0.600000
v 1.000000 -0.299999 -0.599999
v -1.000000 -0.099999 -0.600000
v 1.000000 -0.099999 -0.599999
v -1.000000 -0.099999 -1.000000
v -1.000000 0.000001 -0.999999
v 1.000000 -0.099999 -1.000000
v 1.000000 0.000001 -0.999999
vn -0.0000 1.0000 -0.0000
vn -0.0000 -0.0000 1.0000
vn 1.0000 -0.0000 -0.0000
vn -1.0000 -0.0000 -0.0001
vn -1.0000 -0.0001 -0.0001
vn -0.0000 -0.0000 -1.0000
vn -1.0000 -0.0000 -0.0000
vt 0.617427 0.099839
vt 0.912119 0.040901
vt 0.912119 0.099839
vt 0.618631 0.002281
vt 0.913323 0.002281
vt 0.913183 0.138496
vt 0.913183 0.197434
vt 0.618491 0.138496
vt 0.914247 0.236091
vt 0.618490 0.197434
vt 0.914247 0.295030
vt 0.619554 0.236091
vt 0.915311 0.333687
vt 0.619554 0.295030
vt 0.915311 0.392625
vt 0.620618 0.333687
vt 0.916375 0.431282
vt 0.620618 0.392625
vt 0.916375 0.490221
vt 0.621682 0.431282
vt 0.775864 0.796224
vt 0.395628 0.846283
vt 0.388478 0.617427
vt 0.005001 0.912531
vt 0.382547 0.862826
vt 0.383916 0.912530
vt 0.383911 0.667488
vt 0.002281 0.629296
vt 0.383916 0.617427
vt 0.065582 0.549563
vt 0.547315 0.612864
vt 0.063334 0.612864
vt 0.389846 0.954819
vt 0.767393 0.905114
vt 0.768761 0.954819
vt 0.156329 0.458817
vt 0.549564 0.549563
vt 0.156328 0.156328
vt 0.458817 0.458817
vt 0.549563 0.065582
vt 0.768761 0.900551
vt 0.388478 0.850847
vt 0.767393 0.850846
vt 0.383915 0.966799
vt 0.003633 0.917094
vt 0.382547 0.917094
vt 0.002282 0.547315
vt 0.065582 0.065582
vt 0.612864 0.547315
vt 0.612864 0.063334
vt 0.618974 0.494783
vt 0.996171 0.544418
vt 0.617427 0.544418
vt 0.547315 0.002281
vt 0.617427 0.040901
vt 0.621682 0.490221
vt 0.777242 0.846283
vt 0.003633 0.862826
vt 0.002281 0.858263
vt 0.388478 0.905114
vt 0.458817 0.156328
vt 0.389846 0.900552
vt 0.005001 0.966799
vt 0.002281 0.063334
vt 0.997719 0.494783
vt 0.063334 0.002281
s 1
usemtl TheMaterial
f 50/1/1 48/2/1 47/3/1
f 4/2/2 2/4/2 1/5/2
f 52/6/2 6/1/2 3/3/2
f 54/7/1 8/8/1 7/6/1
f 56/9/2 9/10/2 10/7/2
f 58/11/1 12/12/1 11/9/1
f 60/13/2 14/14/2 13/11/2
f 62/15/1 15/16/1 16/13/1
f 64/17/2 18/18/2 17/15/2
f 21/19/1 19/20/1 20/17/1
f 65/21/3 26/22/3 24/23/3
f 25/24/2 67/25/2 68/26/2
f 28/27/4 30/28/5 27/29/4
s 0
f 34/30/6 32/31/6 33/32/6
f 38/33/2 36/34/2 35/35/2
f 38/36/1 31/37/1 34/30/1
f 34/30/1 40/38/1 38/36/1
f 35/39/1 43/40/1 31/37/1
f 38/41/3 42/42/3 37/43/3
f 36/44/7 44/45/7 35/46/7
f 33/47/7 39/48/7 34/30/7
f 32/49/3 43/40/3 45/50/3
f 40/51/6 46/52/6 42/53/6
f 43/40/1 40/38/1 39/48/1
f 39/48/2 45/54/2 43/40/2
s 1
f 50/1/1 49/55/1 48/2/1
f 4/2/2 5/55/2 2/4/2
f 52/6/2 51/8/2 6/1/2
f 54/7/1 53/10/1 8/8/1
f 56/9/2 55/12/2 9/10/2
f 58/11/1 57/14/1 12/12/1
f 60/13/2 59/16/2 14/14/2
f 62/15/1 61/18/1 15/16/1
f 64/17/2 63/20/2 18/18/2
f 21/19/1 22/56/1 19/20/1
f 65/21/3 66/57/3 26/22/3
f 25/24/2 23/58/2 67/25/2
f 28/27/4 29/59/5 30/28/5
s 0
f 34/30/6 31/37/6 32/31/6
f 38/33/2 37/60/2 36/34/2
f 38/36/1 35/39/1 31/37/1
f 34/30/1 39/48/1 40/38/1
f 35/39/1 44/61/1 43/40/1
f 38/41/3 40/62/3 42/42/3
f 36/44/7 46/63/7 44/45/7
f 33/47/7 41/64/7 39/48/7
f 32/49/3 31/37/3 43/40/3
f 40/51/6 44/65/6 46/52/6
f 43/40/1 44/61/1 40/38/1
f 39/48/2 41/66/2 45/54/2
o Plane
v -1.000000 -1.100000 1.000000
v 1.000000 -1.100000 1.000000
v -1.000000 0.200000 1.000000
v 1.000000 0.200000 1.000000
vn -0.0000 -0.0000 1.0000
vt 1.000000 0.000000
vt 0.000000 1.000000
vt 0.000000 0.000000
vt 1.000000 1.000000
s 0
f 70/67/8 71/68/8 69/69/8
f 70/67/8 72/70/8 71/68/8
