# Blender 4.0.2
# www.blender.org
mtllib stairs_down.mtl
o Stairs.001
v 1.600000 1.000000 -1.600000
v -1.600000 1.000000 -1.600000
v -1.600000 1.000000 1.600000
v 1.600000 1.000000 1.600000
v 7.200000 1.000000 -7.200000
v -7.200000 1.000000 -7.200000
v -7.200000 1.000000 7.200000
v 7.200000 1.000000 7.200000
vn -0.0000 1.0000 -0.0000
vt 0.000000 0.000000
vt 0.000000 1.000000
vt 1.000000 1.000000
vt 1.000000 0.000000
s 0
usemtl Material
f 1/1/1 5/2/1 6/3/1 2/4/1
f 2/1/1 6/2/1 7/3/1 3/4/1
f 5/3/1 1/4/1 4/1/1 8/2/1
f 4/1/1 3/4/1 7/3/1 8/2/1
o StairsUp
v 1.000000 -0.100000 1.000000
v -1.000000 -0.100000 1.000000
v 1.000000 0.100000 0.600001
v 0.999999 0.100000 1.000001
v -1.000000 0.100000 1.000000
v -1.000000 0.100000 0.600000
v 1.000000 0.300000 0.600001
v -1.000000 0.300000 0.600000
v -1.000000 0.300000 0.200000
v 1.000000 0.300000 0.200001
v 1.000000 0.500000 0.200001
v -1.000000 0.500000 0.200000
v 1.000000 0.500000 -0.199999
v -1.000000 0.500000 -0.200000
v -1.000000 0.700000 -0.200000
v 1.000000 0.700000 -0.199999
v 1.000000 0.700000 -0.599999
v -1.000000 0.700000 -0.600000
v -1.000000 0.900000 -0.600000
v 1.000000 0.900000 -0.599999
v 1.000000 0.900000 -0.999999
v -1.000000 0.900000 -1.000000
v -1.000000 0.900000 -1.000000
v -1.000000 -0.100000 1.000000
v -1.000000 1.000000 -0.999999
v -1.000001 1.000000 1.000001
v 1.000000 1.000000 -0.999999
v 1.000000 0.900000 -1.000000
v 1.000000 -0.100000 1.000000
v 0.999886 0.999990 1.000102
v 1.600000 1.200000 -1.600000
v 1.600000 1.000000 -1.600000
v -1.600000 1.000000 -1.600000
v -1.600000 1.200000 -1.600000
v 1.000000 1.199999 -1.000000
v 0.999999 0.999999 -1.000000
v -1.000000 1.000000 -1.000000
v -1.000000 1.200000 -1.000000
v -1.600000 1.200000 1.600000
v -1.000000 1.200000 1.000000
v -1.600000 1.000000 1.600000
v -1.000000 1.000000 1.000000
v 1.600000 1.200000 1.600000
v 1.000000 1.199999 1.000000
v 1.600000 1.000000 1.600000
v 0.999999 0.999999 1.000000
v 1.000000 0.100000 0.600001
v 0.999999 0.100000 1.000001
v -1.000000 0.100000 1.000000
v -1.000000 0.100000 0.600000
v -1.000000 0.300000 0.600000
v 1.000000 0.300000 0.600001
v -1.000000 0.300000 0.200000
v 1.000000 0.300000 0.200001
v -1.000000 0.500000 0.200000
v 1.000000 0.500000 0.200001
v -1.000000 0.500000 -0.200000
v 1.000000 0.500000 -0.199999
v -1.000000 0.700000 -0.200000
v 1.000000 0.700000 -0.199999
v -1.000000 0.700000 -0.600000
v 1.000000 0.700000 -0.599999
v -1.000000 0.900000 -0.600000
v 1.000000 0.900000 -0.599999
v -1.000000 0.900000 -1.000000
v -1.000000 1.000000 -0.999999
v 1.000000 0.900000 -1.000000
v 1.000000 1.000000 -0.999999
vn -0.0000 1.0000 -0.0000
vn -0.0000 -0.0000 1.0000
vn 1.0000 -0.0000 -0.0000
vn -1.0000 -0.0001 -0.0001
vn -0.0000 -0.0000 -1.0000
vn -1.0000 -0.0000 -0.0000
vt 0.912119 0.099839
vt 0.617427 0.099839
vt 0.617427 0.040901
vt 0.912119 0.040901
vt 0.913323 0.002281
vt 0.618631 0.002281
vt 0.913183 0.138496
vt 0.618491 0.138496
vt 0.913183 0.197434
vt 0.618490 0.197434
vt 0.914247 0.236091
vt 0.619554 0.236091
vt 0.914247 0.295030
vt 0.619554 0.295030
vt 0.915311 0.333687
vt 0.620618 0.333687
vt 0.915311 0.392625
vt 0.620618 0.392625
vt 0.916375 0.431282
vt 0.621682 0.431282
vt 0.916375 0.490221
vt 0.621682 0.490221
vt 0.775864 0.796224
vt 0.777242 0.846283
vt 0.395628 0.846283
vt 0.388478 0.617427
vt 0.005001 0.912531
vt 0.003633 0.862826
vt 0.382547 0.862826
vt 0.383916 0.912530
vt 0.383916 0.617427
vt 0.383911 0.667488
vt 0.002281 0.858263
vt 0.002281 0.629296
vt 0.063334 0.612864
vt 0.065582 0.549563
vt 0.549564 0.549563
vt 0.547315 0.612864
vt 0.768761 0.954819
vt 0.389846 0.954819
vt 0.388478 0.905114
vt 0.767393 0.905114
vt 0.156329 0.458817
vt 0.458817 0.458817
vt 0.065582 0.065582
vt 0.156328 0.156328
vt 0.458817 0.156328
vt 0.549563 0.065582
vt 0.767393 0.850846
vt 0.768761 0.900551
vt 0.389846 0.900552
vt 0.388478 0.850847
vt 0.382547 0.917094
vt 0.383915 0.966799
vt 0.005001 0.966799
vt 0.003633 0.917094
vt 0.002282 0.547315
vt 0.002281 0.063334
vt 0.612864 0.547315
vt 0.612864 0.063334
vt 0.618974 0.494783
vt 0.997719 0.494783
vt 0.996171 0.544418
vt 0.617427 0.544418
vt 0.063334 0.002281
vt 0.547315 0.002281
s 1
usemtl 
f 55/5/2 58/6/2 57/7/2 56/8/2
f 9/9/3 12/8/3 13/7/3 10/10/3
f 11/5/3 60/11/3 59/12/3 14/6/3
f 15/11/2 62/13/2 61/14/2 16/12/2
f 18/13/3 64/15/3 63/16/3 17/14/3
f 19/15/2 66/17/2 65/18/2 20/16/2
f 21/17/3 68/19/3 67/20/3 22/18/3
f 24/19/2 70/21/2 69/22/2 23/20/2
f 25/21/3 72/23/3 71/24/3 26/22/3
f 28/23/2 29/25/2 30/26/2 27/24/2
f 73/27/4 74/28/4 34/29/4 32/30/4
f 33/31/3 31/32/3 75/33/3 76/34/3
f 35/35/5 36/36/5 37/37/5 38/38/5
s 0
f 41/39/6 42/40/6 39/41/6 40/42/6
f 43/43/3 46/44/3 45/45/3 44/46/3
f 42/40/2 46/47/2 43/48/2 39/41/2
f 46/47/2 42/40/2 47/49/2 48/50/2
f 39/41/2 43/48/2 52/51/2 51/52/2
f 45/53/4 46/54/4 48/55/4 50/56/4
f 43/57/7 44/58/7 54/59/7 52/60/7
f 42/40/7 41/61/7 49/62/7 47/49/7
f 40/63/4 39/41/4 51/52/4 53/64/4
f 48/65/6 52/66/6 54/67/6 50/68/6
f 47/49/2 51/52/2 52/51/2 48/50/2
f 47/49/3 49/69/3 53/70/3 51/52/3
